<?xml version="1.0" encoding="utf-8"?><!-- Generator: Adobe Illustrator 17.1.0, SVG Export Plug-In . SVG Version: 6.00 Build 0)  --><!DOCTYPE svg PUBLIC "-//W3C//DTD SVG 1.0//EN" "http://www.w3.org/TR/2001/REC-SVG-20010904/DTD/svg10.dtd">
<svg xmlns="http://www.w3.org/2000/svg" xmlns:xlink="http://www.w3.org/1999/xlink" version="1.0" x="0px" y="0px" viewBox="0 0 32 32" style="enable-background:new 0 0 25.731 25.657;">
<style> svg * { transition: fill .1s ease-out, opacity .1s ease-out; background-size: cover; background-repeat: no-repeat; } @media all and (min-width: 100px) and (max-width: 250px) { #group_0 { opacity: 0; } #group_1 { opacity: 1; } } @media all and (min-width: 251px) and (max-width: 350px) { #group_0 { opacity: 1; } #group_1 { opacity: 0; } } </style>
<g xmlns="http://www.w3.org/2000/svg" id="group_0"><path xmlns="http://www.w3.org/2000/svg" d="M19.418,13.031c-3.486,0-6.313,2.826-6.313,6.313s2.826,6.313,6.313,6.313s6.313-2.826,6.313-6.313S22.904,13.031,19.418,13.031z M22.901,20.241h-6.978v-1.793h6.978V20.241z M11.606,19.343c0,2.074,0.814,3.954,2.133,5.354c-1.073,0.078-2.187,0.111-3.289,0.111C5.427,24.808,0,24.162,0,21.32c0-0.558,0-0.218,0-0.781c0-2.086,3.704-4.199,6.86-5.357c0.229-0.086,1.318-0.688,0.709-2.311c-1.564-1.623-2.588-4.25-2.588-6.836C4.981,2.076,7.402,0,10.419,0c3.014,0,5.452,2.076,5.452,6.035c0,2.576-1.031,5.193-2.586,6.818h0.008c-0.273,0.843-0.214,1.382-0.063,1.734C12.215,15.905,11.606,17.552,11.606,19.343z"></path></g>
<g xmlns="http://www.w3.org/2000/svg" id="group_1"><path xmlns="http://www.w3.org/2000/svg" d="M25.898,13.822c-5.769,4.304-7.057,9.267-8.216,11.561c-0.33,0.654-1.069,0.656-1.507,0.109c-0.426-0.533-1.179-2.21-4.063-3.521c-1.119-0.508-0.563-1.535-0.563-1.535l0.773-1.127v0c0,0,0.474-0.766,1.783-0.239c1.503,0.607,2.814,2.6,2.814,2.6S19.038,16.312,25.898,13.822z M9.564,21.96c-0.396-1.18,0.073-2.194,0.227-2.478 c0.033-0.061,0.069-0.121,0.109-0.178l0.758-1.106c0.427-0.646,1.319-1.313,2.599-1.313c0.515,0,1.052,0.111,1.595,0.33c0.641,0.259,1.229,0.656,1.739,1.09c0.298-0.408,0.66-0.849,1.061-1.299c-1.159-0.666-2.493-1.24-3.767-1.668c-0.151-0.051-1.105-0.488-0.51-2.328h-0.008c1.555-1.625,2.586-4.242,2.586-6.818c0-3.959-2.438-6.035-5.452-6.035 c-3.017,0-5.438,2.076-5.438,6.035c0,2.586,1.024,5.213,2.588,6.836c0.609,1.623-0.48,2.225-0.709,2.311c-3.156,1.158-6.86,3.271-6.86,5.357c0,0.563,0,0.223,0,0.781c0,2.842,5.427,3.488,10.45,3.488c0.85,0,1.708-0.02,2.549-0.064 c-0.436-0.369-1.009-0.751-1.798-1.11C10.206,23.302,9.754,22.525,9.564,21.96z"></path></g>
</svg>